<svg xmlns="http://www.w3.org/2000/svg" width="298.94" height="291.333" viewBox="0 0 298.94 291.333"><defs><style>.a{opacity:0.2;}.b,.c,.e,.g,.j{fill:none;}.b,.c,.f,.g{stroke:#000;}.b,.g,.j{stroke-linecap:round;stroke-linejoin:round;}.d{opacity:0.31;}.e{stroke:#fda01f;stroke-miterlimit:10;}.e,.g{stroke-width:2px;}.f{fill:#fff;}.h{fill:#63717c;}.i{fill:#cbcbcb;}.j{stroke:#545454;}</style></defs><g transform="translate(-64.56 -396.644)"><rect class="a" width="56.474" height="57.079" rx="13" transform="matrix(0.321, 0.947, -0.947, 0.321, 143.124, 403.549)"/><rect class="b" width="66.517" height="66.517" rx="13" transform="matrix(0.321, 0.947, -0.947, 0.321, 145.982, 397.279)"/><path class="c" d="M220.684,316.23c-.768,2.095,4.311,7.18,6.779,9.647,1.844,1.856,3.526,3.194,3.9,5.545a7.934,7.934,0,0,1-1.233,5.138c-3.794,7.331-2.909,18.066.826,24.228.326.547,3.09,5.045,5.336,4.521s2.8-5.778,2.874-6.569c.3-3.189-.582-4.335-.611-6.982-.035-4.021,1.978-6.744,3.282-9.036,3.107-5.469,6.522-16.152,3.084-22.18C240.1,312.1,221.911,312.856,220.684,316.23Z" transform="translate(-27.478 267.772)"/><path d="M245.848,388.56c-3.287,3.1-6.907,2.42-9.408,1.251a18.831,18.831,0,0,0,1.135,2.217c.326.541,3.1,5.045,5.336,4.515s2.8-5.778,2.88-6.569A13.805,13.805,0,0,0,245.848,388.56Z" transform="translate(-34.099 236.532)"/><path d="M244.919,320.542c-4.818-8.443-23.006-7.686-24.234-4.311-.582,1.618,2.292,5.01,4.771,7.611h20.626A10.735,10.735,0,0,0,244.919,320.542Z" transform="translate(-27.48 267.772)"/><path class="c" d="M151.478,313.648c-1.746,1.78-1.9,3.741,1.03,24.03a91.4,91.4,0,0,0,7.389,23.611,7.828,7.828,0,0,0,3.9,4.108c1.216.489,3.293.826,4.515-.2,1.548-1.3.989-4.143.413-7.4-.791-4.5-1.28-9.048-2.054-13.551a68.306,68.306,0,0,1-1.024-19.713c.774-6.9,2.4-8.943.82-11.09C163.883,309.935,155.359,309.737,151.478,313.648Z" transform="translate(1.953 269.063)"/><path d="M175.129,392.55c-3.491,3.253-7.349,2.252-9.839.96h0c.285.658.582,1.321.908,1.978a7.828,7.828,0,0,0,3.9,4.108c1.216.489,3.287.826,4.515-.2C176.077,398.165,175.658,395.57,175.129,392.55Z" transform="translate(-4.348 234.864)"/><rect class="c" width="9.856" height="99.356" transform="translate(310.291 588.122)"/><rect width="297.905" height="18.514" transform="translate(65.06 569.602)"/><rect class="c" width="9.856" height="99.356" transform="translate(107.808 588.122)"/><rect width="9.856" height="3.491" transform="translate(107.808 588.122)"/><rect class="c" width="9.856" height="99.356" transform="translate(209.049 588.122)"/><rect width="9.856" height="3.491" transform="translate(209.049 588.122)"/><g class="d" transform="translate(112.326 513.262)"><path d="M82.843,196.36a12.964,12.964,0,0,1,2.374.361,20.053,20.053,0,0,1,2.223.675.983.983,0,0,1,.582,1.263.948.948,0,0,1-.314.4l-.157.128a25.019,25.019,0,0,1-4.137,2.723V200.2a19.521,19.521,0,0,1,1.618,1.565,12.567,12.567,0,0,1,1.426,1.839,12.8,12.8,0,0,1-2.211-.721,18.536,18.536,0,0,1-2.019-.989.948.948,0,0,1-.367-1.3.99.99,0,0,1,.221-.268l.169-.134a25.019,25.019,0,0,1,4.119-2.746l.128,1.815a20.65,20.65,0,0,1-1.92-1.3,13.162,13.162,0,0,1-1.734-1.594Z" transform="translate(-81.734 -196.36)"/></g><g class="d" transform="translate(120.592 526.898)"><path d="M97.069,219.8a9.13,9.13,0,0,1,1.984.175,13.67,13.67,0,0,1,1.833.483.977.977,0,0,1,.582,1.234,1,1,0,0,1-.291.425l-.192.163a16.723,16.723,0,0,1-3.357,2.205v-1.711A12.529,12.529,0,0,1,98.9,224.1a8.634,8.634,0,0,1,1.088,1.594,8.781,8.781,0,0,1-1.868-.477,13.3,13.3,0,0,1-1.682-.751.937.937,0,0,1-.39-1.268.89.89,0,0,1,.215-.268l.2-.175a16.753,16.753,0,0,1,3.346-2.228l.128,1.821a12.732,12.732,0,0,1-1.53-1.123,8.966,8.966,0,0,1-1.338-1.426Z" transform="translate(-95.941 -219.796)"/></g><g class="d" transform="translate(122.811 502.794)"><path d="M100.805,178.37c.582.1,1.164.239,1.746.39s1.164.308,1.7.489q1.682.535,3.3,1.164a1.012,1.012,0,0,1,.582,1.309,1,1,0,0,1-.326.425l-.111.081a57.2,57.2,0,0,1-6.284,4.149v-1.711c.879.71,1.746,1.449,2.566,2.228a27.6,27.6,0,0,1,2.374,2.5,26.988,26.988,0,0,1-3.159-1.379c-1.012-.512-2-1.071-2.967-1.652a.979.979,0,0,1-.087-1.623l.111-.087a58.621,58.621,0,0,1,6.272-4.166l.128,1.821q-1.519-.832-3-1.821c-.489-.326-.966-.669-1.449-1.018A17.738,17.738,0,0,1,100.805,178.37Z" transform="translate(-99.755 -178.37)"/></g><g class="d" transform="translate(126.067 479.125)"><path d="M105.35,137.69c1.362.192,2.694.46,4.009.768.663.14,1.321.308,1.972.477s1.309.337,1.961.524a.762.762,0,0,1,.529.943.716.716,0,0,1-.209.349l-.047.047q-3.189,3-6.6,5.714l-.151-1.274c.582.326,1.129.669,1.687,1.012s1.117.687,1.664,1.047c1.1.71,2.188,1.449,3.235,2.263-1.263-.4-2.5-.867-3.706-1.367-.582-.244-1.21-.5-1.81-.768s-1.2-.529-1.786-.809a.756.756,0,0,1-.361-1.007.7.7,0,0,1,.163-.221l.047-.047q3.177-3,6.592-5.731l.268,1.338c-.628-.233-1.263-.477-1.885-.733s-1.257-.5-1.879-.78C107.794,138.906,106.56,138.336,105.35,137.69Z" transform="translate(-105.35 -137.69)"/></g><g class="d" transform="translate(143.667 501.072)"><path d="M135.6,175.41a31.871,31.871,0,0,1,3.282.529c1.082.215,2.147.477,3.206.762a.768.768,0,0,1,.541.937.791.791,0,0,1-.209.349l-.058.052A67.556,67.556,0,0,1,137,182.695l-.145-1.274c.908.547,1.815,1.105,2.688,1.711a31.317,31.317,0,0,1,2.583,1.926,30.728,30.728,0,0,1-3.049-1.024c-1-.372-1.978-.8-2.944-1.234a.756.756,0,0,1-.372-.989.809.809,0,0,1,.163-.227l.058-.058a67.538,67.538,0,0,1,5.347-4.655l.268,1.338c-1.018-.4-2.036-.809-3.037-1.274a30.866,30.866,0,0,1-2.962-1.524Z" transform="translate(-135.6 -175.41)"/></g><g class="d" transform="translate(141.899 458.446)"><path d="M132.56,102.15c2,.489,3.98,1.024,5.958,1.583s3.945,1.164,5.9,1.746a.506.506,0,0,1,.337.64.454.454,0,0,1-.14.227h0c-1.641,1.49-3.311,2.909-4.969,4.4l-2.519,2.159c-.838.721-1.693,1.426-2.543,2.135l-.1-.844q2.618,1.431,5.2,2.909c1.746.989,3.433,2,5.12,3.061-1.833-.786-3.642-1.612-5.434-2.461s-3.584-1.746-5.359-2.607a.506.506,0,0,1-.227-.681.483.483,0,0,1,.111-.151h0c.826-.739,1.635-1.484,2.473-2.211l2.5-2.188c1.676-1.443,3.346-2.909,5.05-4.306l.18.884c-1.943-.663-3.869-1.356-5.818-2.071S134.463,102.941,132.56,102.15Z" transform="translate(-132.56 -102.15)"/></g><line class="e" x2="0.82" y2="18.52" transform="translate(272.075 569.602)"/><path class="f" d="M59.181,239.278a28.808,28.808,0,0,0-2.531,3.834s2.4-1.024,2.6-.681c0,0-2.223,3.59-2.223,4.207l149.273.047c2.467.355,8.8,1.635,11.212,3,3.811,2.159,5.58,5.6,6.779,8.006,1.263,2.548,3.206,7.419,3.078,16.839-.1,7.535-1.4,7.89-2.461,17.868-.8,7.465-1.373,13.179,0,20.33.873,4.573,1.868,9.769,5.749,14.988,1.559,2.106,8.146,10.374,18.689,11.3,8.821.774,15.273-4.073,21.354-8.629,12.364-9.275,17.025-21.133,20.743-30.6,5.97-15.2,3.386-20.621,2.671-21.971-1.786-3.351-5.714-7.325-9.856-6.982-2.636.215-4.422,2.1-7.6,5.545-1.583,1.711-2.909,3.456-6.982,9.856-3.264,5.161-4.736,7.739-7.808,11.294-3.165,3.671-4.579,4.37-5.952,4.521-3.427.372-6.266-2.688-7.4-3.9-1.693-1.827-3.491-4.655-4.719-11.294-1.123-6.1-.384-7.96-.826-14.168s-.855-12.137-3.9-17.665c-4.166-7.564-16.874-12.8-19.579-14.1a48.4,48.4,0,0,0,1.234-28.476c-1.123-4.143-6.72-22.477-23.274-28.749-9.763-3.7-18.351-1.129-29.849,1.746-16.251,4.108-27.126,12.387-35.318,18.759-8.978,6.982-13.9,14.244-18.072,19.306.96-4.655-3.561-18.485-3.561-18.485-4.108,2.741-11.09,13.964-11.09,13.964-2.455-1.536-5.6-3.113-11.771-3.974-5.818-.809-8.547-.384-11.294.355l-8.3-10.316c-1.914,3.287-.687,14.377-.687,14.377a20.6,20.6,0,0,0-8.332,19.847" transform="translate(41.081 322.963)"/><path d="M80.52,239.6V233l3,5.667A4.122,4.122,0,0,0,80.52,239.6Z" transform="translate(31.099 301.58)"/><path d="M140.38,242.714l3.852-6.144v7.651S143.359,241.876,140.38,242.714Z" transform="translate(6.069 300.088)"/><path class="g" d="M74.533,273.958a8.211,8.211,0,0,0-4.213-2.618" transform="translate(35.364 285.548)"/><path class="g" d="M110,275.083a8.03,8.03,0,0,1,7.442-1.746" transform="translate(18.772 284.831)"/><path d="M103,280.338a28.6,28.6,0,0,1,5.405-2.444,33.558,33.558,0,0,1,5.784-1.414c.983-.169,1.972-.233,2.962-.326l1.5-.035h.745l.745.041a26.569,26.569,0,0,1,5.865.884c-.489-.052-.983-.116-1.466-.18a13.862,13.862,0,0,0-1.472-.145l-1.466-.1h-1.472c-.978-.029-1.955.064-2.909.111a22.667,22.667,0,0,0-2.909.349,43.983,43.983,0,0,0-5.731,1.263l-1.408.431-1.391.489A20.816,20.816,0,0,0,103,280.338Z" transform="translate(21.699 283.55)"/><path d="M105.35,282.773a35.729,35.729,0,0,1,4.55-1.466,37.683,37.683,0,0,1,4.7-.913,26.938,26.938,0,0,1,4.794-.221,15.313,15.313,0,0,1,4.7.908c-.4-.07-.785-.14-1.164-.221s-.785-.087-1.164-.14a11.4,11.4,0,0,0-1.164-.081,11.087,11.087,0,0,0-1.164,0l-1.164.029-1.164.076c-.785.058-1.571.14-2.327.244-1.571.186-3.125.477-4.655.774-.78.145-1.554.314-2.327.495S106.13,282.587,105.35,282.773Z" transform="translate(20.717 281.866)"/><path d="M104.74,285.511a38.942,38.942,0,0,1,4.073-.762,41.247,41.247,0,0,1,4.154-.367,25.735,25.735,0,0,1,4.178.157,13.263,13.263,0,0,1,2.06.442,4.376,4.376,0,0,1,1.81,1.042,4.771,4.771,0,0,0-1.885-.768,13.128,13.128,0,0,0-2.025-.268,40.524,40.524,0,0,0-4.119,0c-1.373.041-2.746.14-4.125.227Z" transform="translate(20.972 280.105)"/><path d="M61,278.326c-.9-.4-1.81-.78-2.74-1.1l-1.391-.489-1.4-.431a44.075,44.075,0,0,0-5.737-1.263c-.966-.175-1.938-.244-2.909-.349a21.262,21.262,0,0,0-2.909-.111H42.445l-1.466.1a13.6,13.6,0,0,0-1.466.145c-.489.064-.978.128-1.472.18a26.619,26.619,0,0,1,5.871-.884l.745-.041H45.4l1.49.035c.989.093,1.984.157,2.962.326a33.3,33.3,0,0,1,5.784,1.414A28.606,28.606,0,0,1,61,278.326Z" transform="translate(48.862 284.398)"/><path d="M61.689,280.773c-.774-.186-1.548-.378-2.327-.535s-1.548-.349-2.327-.495c-1.554-.3-3.107-.582-4.655-.774q-1.164-.157-2.356-.244l-1.2-.081H46.491a11.283,11.283,0,0,0-1.164.081c-.39.052-.791.058-1.164.14s-.774.151-1.164.221a15.349,15.349,0,0,1,4.655-.914,26.94,26.94,0,0,1,4.794.221,37.682,37.682,0,0,1,4.7.914,35.438,35.438,0,0,1,4.538,1.466Z" transform="translate(46.788 282.702)"/><path d="M64.032,283.494l-4.143-.32c-1.373-.087-2.752-.186-4.125-.227a40.4,40.4,0,0,0-4.114,0,13.3,13.3,0,0,0-2.031.268,4.747,4.747,0,0,0-1.879.768,4.317,4.317,0,0,1,1.8-1.042,13.263,13.263,0,0,1,2.06-.442,25.806,25.806,0,0,1,4.183-.157,41.141,41.141,0,0,1,4.149.367,39.043,39.043,0,0,1,4.1.785Z" transform="translate(44.806 280.958)"/><path d="M85.733,278.739c-1.047-.7-.826-1.367-2.007-2.054-1.024-.582-1.612-.337-2-.925-.582-.873.175-2.263.308-2.514a3.369,3.369,0,0,1,2.159-1.8c.919-.163,1.164.39,2.618.617a13.052,13.052,0,0,0,2.979-.157c2.909-.186,3.357,0,3.642.256a2.327,2.327,0,0,1,.768,2.327c-.378,1.193-1.891.884-3.282,2.519-.89,1.047-.582,1.559-1.385,2.054A3.927,3.927,0,0,1,85.733,278.739Z" transform="translate(30.687 285.515)"/><path d="M90.857,289.122a4.614,4.614,0,0,1-.308-2.071,5.237,5.237,0,0,1,.5-2.031,8.839,8.839,0,0,1,.081,2.066,12.645,12.645,0,0,1-.273,2.036Z" transform="translate(26.912 279.828)"/><path d="M443.827,370.649h0a33.648,33.648,0,0,0-15.937-25.112,38.263,38.263,0,0,1,3.98-5.237c3.177-3.445,4.969-5.33,7.6-5.545,4.143-.343,8.076,3.631,9.856,6.982.721,1.35,3.3,6.773-2.665,21.971-.861,2.205-1.78,4.533-2.834,6.93Z" transform="translate(-114.155 259.04)"/><path class="h" d="M213.153,284.948c-.273-1.036-.547-2.066-.908-3.055a31.222,31.222,0,0,0-1.257-2.909,46.548,46.548,0,0,0-3.189-5.5,19.568,19.568,0,0,1,4.876,8.268,13.6,13.6,0,0,1,.477,3.2Z" transform="translate(-22.123 284.653)"/><path class="h" d="M171.32,282.19a7.378,7.378,0,0,1,4.073,2.2,6.744,6.744,0,0,1,1.327,1.961,9.757,9.757,0,0,1,.582,2.263c-.332-.7-.623-1.414-.972-2.066a6.758,6.758,0,0,0-.582-.914,9.048,9.048,0,0,0-.721-.844A12.8,12.8,0,0,0,171.32,282.19Z" transform="translate(-6.869 281.011)"/><path d="M198.84,392.1s8.146,5.865,14.145-1.554a11.776,11.776,0,0,1,.646,4.585c-.07,1.4-.227,4.521-2.188,5.609-2.566,1.426-6.534-1.571-7.529-2.327a16.956,16.956,0,0,1-4.882-6.15" transform="translate(-18.377 235.7)"/><path class="c" d="M262.6,241.49a245.537,245.537,0,0,0-14.238,20.946,18.354,18.354,0,0,0-.274,21.08c1.926,3.194,2.682,2.665,8.763,9.583,4.172,4.742,4.969,6.307,5.475,7.669.861,2.281.908,4.521.96,8.9.081,6.5-.547,7.739-.273,13.557.145,3.119.489,6.214,2.327,9.31.727,1.222,1.9,3.136,3.561,3.148,1.85,0,3.148-2.327,3.287-2.6,1.367-2.56-.07-4.23-.14-8.763a28.624,28.624,0,0,1,1.78-9.583c1.007-3.2,1.623-3.648,2.735-6.575,1-2.618,2.775-7.261,2.467-12.184-.471-7.523-5.469-10.334-3.695-14.785a8.426,8.426,0,0,1,3.695-3.834c3.945-2.624,9.071-8.053,13.691-20.533" transform="translate(-37.64 298.03)"/><path class="h" d="M313.82,282.636c.756-1.164,1.49-2.362,2.176-3.573s1.344-2.426,1.967-3.671,1.228-2.5,1.821-3.753l1.746-3.8c-.186.675-.4,1.338-.623,2.007s-.471,1.315-.721,1.972c-.506,1.3-1.088,2.583-1.716,3.834a36.63,36.63,0,0,1-2.106,3.648,27.353,27.353,0,0,1-2.543,3.334Z" transform="translate(-66.456 287.012)"/><path class="h" d="M262.628,241.49c-3.491,4.719-6.86,9.531-10.043,14.465-.791,1.234-1.577,2.473-2.327,3.718l-1.164,1.879-.582.943-.512.978c-.332.652-.7,1.286-1.007,1.938s-.582,1.315-.867,1.99a18.574,18.574,0,0,0-.669,2.066c-.2.7-.332,1.414-.477,2.141a11.5,11.5,0,0,1,.646-4.387,12.33,12.33,0,0,1,.879-2.054,17.967,17.967,0,0,1,1.164-1.908l.617-.908.582-.943,1.164-1.868q1.164-1.856,2.391-3.7Q257.263,248.484,262.628,241.49Z" transform="translate(-37.665 298.03)"/><path d="M286.366,391.94a8.038,8.038,0,0,1-8.536.727,14.768,14.768,0,0,0,1.263,2.8c.727,1.222,1.9,3.136,3.561,3.148,1.85,0,3.148-2.327,3.282-2.6A5.673,5.673,0,0,0,286.366,391.94Z" transform="translate(-51.407 235.119)"/><rect width="9.856" height="3.491" transform="translate(310.291 588.122)"/><path d="M466.062,239c.32,1.524.529,3.055.7,4.591s.285,3.066.378,4.608.128,3.078.122,4.62a45.967,45.967,0,0,1-.209,4.655c-.32-1.524-.529-3.055-.7-4.591s-.285-3.066-.378-4.608-.128-3.078-.116-4.62a45.965,45.965,0,0,1,.2-4.655Z" transform="translate(-130.031 299.071)"/><path d="M469.644,253.9c-1.524.32-3.055.529-4.591.7s-3.066.285-4.608.378-3.078.128-4.62.122a45.958,45.958,0,0,1-4.655-.209c1.524-.32,3.055-.529,4.591-.7s3.066-.285,4.608-.378,3.078-.128,4.62-.116A45.965,45.965,0,0,1,469.644,253.9Z" transform="translate(-123.89 292.926)"/><path d="M486.924,258.48a21.274,21.274,0,0,1,.617,3.084c.14,1.03.244,2.066.3,3.1s.07,2.071.041,3.113a21.235,21.235,0,0,1-.285,3.13,21.289,21.289,0,0,1-.623-3.084c-.14-1.03-.244-2.066-.3-3.1s-.064-2.071-.035-3.113A21.153,21.153,0,0,1,486.924,258.48Z" transform="translate(-138.714 290.926)"/><path d="M489.458,268.368a21.138,21.138,0,0,1-3.084.623c-1.03.14-2.06.239-3.1.3s-2.077.064-3.119.041a21.314,21.314,0,0,1-3.13-.291,21.275,21.275,0,0,1,3.084-.617c1.03-.14,2.066-.244,3.1-.3s2.071-.064,3.113-.035a21.949,21.949,0,0,1,3.13.279Z" transform="translate(-134.703 286.914)"/><path d="M192.562,19.84c.32,1.524.529,3.055.7,4.591s.285,3.072.378,4.608.128,3.078.122,4.62-.047,3.09-.2,4.655a45.815,45.815,0,0,1-.7-4.591c-.175-1.53-.285-3.066-.378-4.6s-.128-3.078-.116-4.626a45.956,45.956,0,0,1,.2-4.655Z" transform="translate(-15.666 390.714)"/><path d="M196.123,34.7c-1.524.32-3.055.529-4.591.7s-3.066.285-4.6.378-3.078.128-4.655.122-3.084-.047-4.655-.2a45.813,45.813,0,0,1,4.591-.7c1.536-.175,3.072-.285,4.608-.378s3.078-.128,4.62-.116A45.864,45.864,0,0,1,196.123,34.7Z" transform="translate(-9.503 384.586)"/><path d="M213.425,39.28a21.276,21.276,0,0,1,.617,3.084c.14,1.03.244,2.066.3,3.1s.07,2.071.041,3.113a21.148,21.148,0,0,1-.285,3.13,21.3,21.3,0,0,1-.623-3.084c-.14-1.03-.239-2.066-.291-3.1s-.07-2.071-.041-3.113a21.223,21.223,0,0,1,.285-3.13Z" transform="translate(-24.35 382.585)"/><path d="M215.962,49.174a21.837,21.837,0,0,1-3.078.617c-1.036.14-2.066.239-3.1.3s-2.077.07-3.113.041a21.15,21.15,0,0,1-3.13-.285,20.324,20.324,0,0,1,3.078-.623c1.03-.14,2.066-.244,3.1-.3s2.071-.064,3.113-.035A21.151,21.151,0,0,1,215.962,49.174Z" transform="translate(-20.342 378.574)"/><path d="M26.9,365.89c.32,1.524.529,3.055.7,4.591s.285,3.066.378,4.6.128,3.078.122,4.626-.047,3.084-.2,4.655a46.072,46.072,0,0,1-.7-4.591c-.175-1.536-.285-3.072-.378-4.608s-.128-3.078-.116-4.62A45.867,45.867,0,0,1,26.9,365.89Z" transform="translate(53.606 246.012)"/><path d="M30.484,380.743a45.819,45.819,0,0,1-4.591.7c-1.53.175-3.066.279-4.6.378s-3.078.128-4.626.116a45.956,45.956,0,0,1-4.655-.2,45.82,45.82,0,0,1,4.591-.7c1.53-.175,3.072-.279,4.608-.372s3.078-.128,4.62-.122S28.936,380.586,30.484,380.743Z" transform="translate(59.747 239.886)"/><path d="M47.785,385.33a21.116,21.116,0,0,1,.617,3.084c.145,1.03.244,2.06.3,3.1s.07,2.077.041,3.113a21.15,21.15,0,0,1-.285,3.13,21.063,21.063,0,0,1-.623-3.078c-.14-1.03-.239-2.066-.291-3.1s-.07-2.071-.041-3.113A21.149,21.149,0,0,1,47.785,385.33Z" transform="translate(44.913 237.883)"/><path d="M50.3,395.215a21.864,21.864,0,0,1-3.078.623c-1.036.14-2.066.239-3.1.291s-2.077.07-3.113.041a21.144,21.144,0,0,1-3.13-.285,21.851,21.851,0,0,1,3.078-.623c1.036-.14,2.066-.239,3.1-.291s2.071-.07,3.113-.041A21.144,21.144,0,0,1,50.3,395.215Z" transform="translate(48.929 233.875)"/><circle class="b" cx="36.278" cy="36.278" r="36.278" transform="translate(260.834 414.365)"/><circle class="i" cx="31.42" cy="31.42" r="31.42" transform="translate(265.692 419.224)"/><path d="M399.111,34.76a7.79,7.79,0,0,1,0,4.218,7.791,7.791,0,0,1,0-4.218Z" transform="translate(-101.999 384.475)"/><path d="M399.111,135.48a7.791,7.791,0,0,1,0,4.218A7.791,7.791,0,0,1,399.111,135.48Z" transform="translate(-101.999 342.359)"/><path d="M450.278,88.541a7.791,7.791,0,0,1-4.218,0,7.791,7.791,0,0,1,4.218,0Z" transform="translate(-121.753 362.108)"/><path d="M349.558,88.541a7.791,7.791,0,0,1-4.218,0A7.791,7.791,0,0,1,349.558,88.541Z" transform="translate(-79.636 362.108)"/><path d="M442.357,116.033a7.192,7.192,0,0,1-1.943-.884,6.861,6.861,0,0,1-1.623-1.379A7.8,7.8,0,0,1,442.357,116.033Z" transform="translate(-118.713 351.437)"/><path d="M357.3,62.093a7.157,7.157,0,0,1-1.938-.884,6.779,6.779,0,0,1-1.629-1.379,7.8,7.8,0,0,1,3.567,2.263Z" transform="translate(-83.145 373.992)"/><path d="M425.712,132.333a7.076,7.076,0,0,1-1.338-1.652,6.778,6.778,0,0,1-.844-1.961A7.866,7.866,0,0,1,425.712,132.333Z" transform="translate(-112.332 345.185)"/><path d="M373.548,46.173a7.076,7.076,0,0,1-1.338-1.652,6.983,6.983,0,0,1-.849-1.961,6.872,6.872,0,0,1,1.344,1.658,6.982,6.982,0,0,1,.844,1.955Z" transform="translate(-90.517 381.214)"/><path d="M370.41,131.777a7.158,7.158,0,0,1,.884-1.938,6.779,6.779,0,0,1,1.379-1.629A7.8,7.8,0,0,1,370.41,131.777Z" transform="translate(-90.119 345.399)"/><path d="M424.35,46.738a6.983,6.983,0,0,1,.884-1.908,6.889,6.889,0,0,1,1.379-1.629,7.721,7.721,0,0,1-2.263,3.567Z" transform="translate(-112.675 380.946)"/><path d="M353.14,115.138a6.982,6.982,0,0,1,1.664-1.344,7.116,7.116,0,0,1,1.961-.844,7.942,7.942,0,0,1-3.613,2.188Z" transform="translate(-82.898 351.78)"/><path d="M439.3,62.972a7.075,7.075,0,0,1,1.652-1.338,6.778,6.778,0,0,1,1.961-.844,6.982,6.982,0,0,1-1.658,1.338A6.68,6.68,0,0,1,439.3,62.972Z" transform="translate(-118.926 373.591)"/><path d="M391.87,76.942,382.7,59.83l10.176,16.53a.582.582,0,1,1-.989.611Z" transform="translate(-95.259 373.992)"/><path d="M398.618,83.494l14.116-6.034-13.621,7.087a.582.582,0,1,1-.535-1.03Z" transform="translate(-101.751 366.62)"/><circle cx="2.176" cy="2.176" r="2.176" transform="translate(294.936 448.467)"/><line class="j" x2="297.94" transform="translate(65.06 687.478)"/></g></svg>